<?xml version="1.0" encoding="UTF-8" standalone="no"?>
<svg
   version="1.1"
   id="Layer_1"
   x="0px"
   y="0px"
   width="100%"
   viewBox="0 0 1024 1024"
   enable-background="new 0 0 1024 1024"
   xml:space="preserve"
   sodipodi:docname="file.svg"
   inkscape:version="1.4.2 (f4327f4, 2025-05-13)"
   xmlns:inkscape="http://www.inkscape.org/namespaces/inkscape"
   xmlns:sodipodi="http://sodipodi.sourceforge.net/DTD/sodipodi-0.dtd"
   xmlns="http://www.w3.org/2000/svg"
   xmlns:svg="http://www.w3.org/2000/svg"><defs
   id="defs55" /><sodipodi:namedview
   id="namedview55"
   pagecolor="#ffffff"
   bordercolor="#000000"
   borderopacity="0.25"
   inkscape:showpageshadow="2"
   inkscape:pageopacity="0.0"
   inkscape:pagecheckerboard="0"
   inkscape:deskcolor="#d1d1d1"
   inkscape:zoom="1"
   inkscape:cx="235.5"
   inkscape:cy="308.5"
   inkscape:window-width="2560"
   inkscape:window-height="1511"
   inkscape:window-x="-9"
   inkscape:window-y="1341"
   inkscape:window-maximized="1"
   inkscape:current-layer="Layer_1" />
<path
   fill="#000000"
   opacity="1"
   stroke="none"
   d="m 477,1025 c -159,0 -317.5,0 -476,0 C 1,683.66669 1,342.33334 1,1 c 341.33334,0 682.66669,0 1024,0 0,341.33334 0,682.66669 0,1024 -182.5,0 -365,0 -548,0 M 377.66223,732.83856 c 0.0826,-0.44861 0.16531,-0.89722 0.33002,-1.32873 0,0 -0.0761,-0.0318 0.59637,-0.60401 1.76764,-9.37359 3.01111,-18.73651 -0.58612,-27.89905 0,0 0.10236,0.0176 -0.0269,-0.61053 -0.31656,-0.49744 -0.63315,-0.99493 -0.95548,-1.41785 0,0 0.0746,0.005 -0.24905,-0.76086 -1.16135,-0.41925 -2.31925,-1.18775 -3.48462,-1.19916 -6.08853,-0.0601 -12.17899,0.0723 -19.02976,-0.0101 -2.53055,-1.05896 -5.60162,-1.53088 -7.49878,-3.27777 -8.57327,-7.89417 -10.27169,-18.47119 -10.3302,-29.42719 -0.0485,-9.0769 0.25952,-18.15576 0.56049,-28.17559 0.004,-14.90815 0.035,-29.81635 -0.03,-44.72419 -0.007,-1.49725 -0.59512,-2.99206 -0.92465,-5.37109 -1.95947,-27.11823 -13.88953,-47.82208 -39.32379,-59.68573 25.82965,-12.44336 38.08285,-32.7833 40.10965,-60.67505 0.0281,-17.93646 0.0562,-35.87292 0.27615,-54.7121 -0.0285,-9.26873 -0.47113,-18.55935 0.017,-27.80081 0.64358,-12.18536 5.39325,-22.89529 18.56207,-26.49145 0.21478,-0.2053 0.31699,-0.45642 0.21076,-0.68659 0,0 0.0648,0.0971 0.90026,0.27762 6.86008,1.11362 13.69425,1.79773 20.23288,-1.23328 0,0 -0.007,0.0718 0.52674,-0.0684 0.19262,-0.3009 0.38528,-0.6018 0.50863,-0.91616 0,0 0.0262,0.0655 0.80466,-0.23603 0.37549,-9.112 0.86313,-18.22244 0.9884,-27.33789 0.0162,-1.17544 -1.84497,-2.37671 -2.83911,-3.47861 0,0 0.0874,0.002 -0.34604,-0.76791 -6.48678,-0.0695 -12.97427,-0.21551 -19.45996,-0.15961 -1.82251,0.0157 -3.63986,0.62439 -6.26199,0.89743 -29.88773,3.79895 -47.97516,28.215 -49.84033,56.48404 -0.0331,26.02118 -0.0745,52.04236 -0.0613,78.06351 4.3e-4,0.84244 0.5585,1.6846 0.8591,3.35614 -0.30069,1.43079 -0.86475,2.862 -0.86231,4.29227 0.0342,19.99432 -16.26849,44.04712 -39.18536,43.91388 -2.62592,-0.0153 -5.30902,1.21136 -5.66891,5.32342 -0.0567,4.09162 -0.25507,8.18762 -0.13056,12.27368 0.12576,4.12537 0.57162,8.24103 0.8833,12.99579 0.18698,0.76569 0.37393,1.53138 1.0492,2.98932 0.69494,0.79669 1.42703,2.31427 2.07916,2.2807 8.34427,-0.43005 15.53692,3.23786 23.06561,6.11646 0,0 -0.0442,-0.12329 -0.0254,0.25946 0.0984,0.28735 0.29993,0.43048 1.24307,0.76391 3.58615,4.78388 7.77454,9.23676 10.62537,14.42469 4.98584,9.07318 6.48102,19.14526 6.04117,30.40228 -0.004,23.55371 -0.0247,47.10742 0.0283,70.66101 0.003,1.5014 0.5813,3.00146 0.89612,5.41449 -0.23191,20.08356 7.45028,36.45636 23.31405,48.77319 6.39151,4.96247 13.30884,9.12665 22.42835,9.32636 0.69879,0.31726 1.39758,0.63452 2.53811,1.73864 8.30289,0.013 16.60575,0.026 25.36896,0.10712 0.3064,-0.16687 0.45725,-0.42486 0.95987,-0.97632 0.18375,-0.30175 0.36749,-0.60345 0.47607,-0.91327 0,0 -0.007,0.0753 0.64069,-0.19 M 723.5227,656.013 c 0,0 0.45655,-0.14246 1.31659,-0.0356 15.05744,0.10638 32.88526,-12.54627 39.23786,-27.64466 4.36969,-10.38562 5.66577,-21.16314 4.91058,-33.2315 -0.0361,-20.31073 -0.0723,-40.62152 0.0436,-61.89075 -0.0565,-10.04675 -0.11304,-20.09351 -0.0786,-31.08252 -0.0495,-14.09485 -0.099,-28.1897 0.0344,-43.18066 -0.30823,-11.07099 -0.97015,-22.14692 -0.81683,-33.21149 0.13135,-9.48047 -1.70837,-18.23679 -6.88068,-26.16129 -9.24377,-14.16263 -21.99121,-22.62381 -39.68805,-24.32019 -0.82348,-0.0887 -1.64703,-0.25509 -2.47052,-0.25522 -83.15673,-0.0133 -166.31353,-0.0176 -249.47024,0.0279 -0.98682,5.2e-4 -1.9733,0.65463 -3.75485,0.89984 -1.58118,0.33011 -3.15091,0.73538 -4.7453,0.97888 -19.81543,3.02637 -40.10236,23.24234 -38.98685,46.26016 -0.0654,0.6568 -0.18805,1.3136 -0.18808,1.9704 -0.003,61.47547 -0.002,122.95093 0.0439,184.42639 8.9e-4,1.19733 0.53775,2.39423 0.88868,4.43244 0.17309,17.61859 16.17379,34.53357 30.65762,39.97326 11.51126,4.32331 23.71417,3.13495 36.34033,3.44318 0.0303,16.78552 0.0362,33.57123 0.13345,50.35638 0.009,1.48084 0.61371,2.95819 0.88916,5.16779 2.33112,6.06372 8.6127,9.96832 12.8339,6.37 10.66055,-9.08753 20.25558,-19.42499 30.87613,-29.48792 1.14288,-1.24719 2.28576,-2.49438 4.13745,-3.76813 4.40319,-4.32898 8.80639,-8.65796 13.82684,-13.26141 4.12683,-4.09912 8.40186,-8.06214 12.3327,-12.34131 3.0506,-3.32098 6.61573,-4.55695 10.9953,-4.45258 16.75464,0.39942 33.51252,0.98078 50.26795,0.94086 18.58496,-0.0443 37.16852,-0.69348 56.28393,-0.8659 0.15631,0.10937 0.31269,0.21875 1.06427,0.90698 11.78943,0.0181 23.57904,0.0638 35.36823,0.0176 1.37665,-0.005 2.75134,-0.51825 4.19153,-0.86756 0,0 -0.0704,-0.0662 0.40557,-0.11334 z"
   id="path1"
   style="display:inline;fill:#000000;fill-opacity:0" />
<path
   fill="#1C6AAD"
   opacity="1.000000"
   stroke="none"
   d=" M682.962158,656.397522   C682.805786,656.288086 682.649414,656.178711 681.862549,655.779419   C679.255127,655.325745 677.278503,655.022766 675.301392,655.019531   C654.171448,654.984924 633.041260,655.045044 611.911743,654.945496   C608.813843,654.930908 605.711365,653.839966 602.624756,653.904419   C595.032166,654.063110 587.450195,654.723267 579.857605,654.886780   C578.431641,654.917542 576.976196,653.580444 575.534363,652.874573   C577.049988,651.921326 578.790771,649.914795 580.045288,650.182983   C589.315125,652.164856 598.345764,648.108032 607.541748,649.364990   C608.099731,649.441223 608.786865,648.572144 610.269592,647.557312   C608.322754,646.644104 607.119202,645.609497 605.892639,645.581543   C598.719910,645.417908 591.471619,646.119446 584.382446,645.329529   C574.624084,644.242249 566.094116,646.455627 558.789795,652.730042   C554.851807,656.112854 551.596802,660.290710 547.921204,664.409546   C544.559204,667.820984 541.377747,671.007996 538.041931,674.024475   C534.320374,677.389771 530.384216,680.519653 526.701294,683.924927   C525.537048,685.001465 524.886536,686.633667 523.667725,688.110229   C517.840149,693.503784 512.345764,698.798706 506.583832,704.246582   C505.211670,704.933411 504.107056,705.467224 502.811401,705.732666   C502.408356,704.619629 502.196381,703.774963 501.990967,702.470825   C501.997498,697.173096 501.997498,692.334900 501.997498,687.496704   C501.410980,687.521484 500.824463,687.546265 500.237946,687.571045   C500.092987,689.452698 499.948029,691.334412 499.803070,693.216125   C499.668030,693.213074 499.532990,693.210083 499.397980,693.207031   C498.829712,690.225891 498.261444,687.244812 497.444061,682.956787   C496.298309,685.505066 495.725006,686.780212 495.099091,687.642395   C494.946198,686.125183 494.845917,685.020874 494.795502,683.469727   C494.860321,680.365479 495.057404,677.692322 494.830688,675.055725   C494.660248,673.073486 494.227478,670.792175 491.094299,671.553589   C490.948212,667.643677 491.001221,664.186096 490.732910,660.753601   C490.627777,659.408264 489.802429,658.119202 489.305054,656.804504   C477.290131,657.103333 465.087219,658.291687 453.575958,653.968384   C439.092133,648.528687 423.091431,631.613708 422.999512,613.109131   C423.060608,602.726562 423.024994,593.229858 423.023010,583.733215   C423.011780,530.084656 423.008636,476.436096 423.002716,422.787537   C421.058350,400.148071 441.345276,379.932098 461.160706,376.905731   C462.755096,376.662231 464.324829,376.256958 466.780029,376.097717   C506.142181,376.185760 544.630249,376.068481 583.118469,376.029083   C629.438110,375.981689 675.757751,376.000519 722.077393,375.990662   C739.298462,376.950684 752.045898,385.411865 761.289673,399.574493   C766.461975,407.498993 768.301697,416.255310 768.170349,425.735779   C768.017029,436.800354 768.678955,447.876282 768.609497,459.722168   C768.193420,474.666962 768.155090,488.836792 768.050354,503.471497   C768.049133,513.913574 768.114319,523.890747 768.086548,534.337769   C767.986023,553.683777 767.958496,572.560059 768.008179,591.436157   C768.012268,592.970520 768.543945,594.503479 768.830383,596.037048   C769.742920,607.169556 768.446838,617.947083 764.077148,628.332703   C757.724548,643.431091 739.896729,656.083740 724.288208,655.871704   C723.459534,655.736450 723.229370,655.834534 723.046753,656.060120   C723.046753,656.060120 723.117126,656.126343 722.691528,656.055481   C721.181396,655.895752 720.096863,655.806946 718.962952,655.405945   C716.768005,651.510803 715.414490,653.878479 713.529846,655.807434   C703.030701,656.043518 692.996399,656.220520 682.962158,656.397522  M449.269348,648.623596   C452.839478,650.070740 456.409607,651.517883 460.574036,653.256836   C466.495911,653.762939 472.417786,654.269043 478.339691,654.775085   C476.646210,652.722534 474.935516,651.580627 473.104584,650.684448   C470.336853,649.329712 467.566925,647.893677 464.649658,646.951111   C460.618561,645.648743 455.965240,647.276245 452.516876,642.792175   C450.421539,640.067566 446.397247,638.621399 442.998077,637.163818   C439.767456,635.778442 437.858398,636.879395 439.637146,641.201660   C442.766327,643.484436 445.895508,645.767151 448.978058,648.021545   C448.978058,648.021545 448.939117,647.983398 449.269348,648.623596  M649.917419,436.337372   C628.562317,438.773468 612.251038,449.577881 602.961914,468.561798   C588.533020,498.049622 587.742554,528.832520 600.740845,559.017456   C611.334778,583.618896 631.421692,595.623779 658.044128,596.040405   C684.955566,596.461487 705.166138,584.545654 716.611938,560.194580   C728.465942,534.974792 728.340759,508.509399 720.401245,482.152649   C715.601379,466.218842 706.517822,453.129089 691.817200,444.422791   C679.078613,436.878479 665.225769,435.311676 649.917419,436.337372  M522.437012,439.369781   C508.614471,439.333496 494.791931,439.266144 480.969421,439.276031   C475.342072,439.280060 474.296692,440.369049 474.272614,446.049377   C474.243683,452.877197 474.321198,459.705353 474.316315,466.533386   C474.287598,506.669312 474.293701,546.805420 474.150970,586.940918   C474.134430,591.590820 475.611847,593.715393 480.498108,593.443176   C485.812225,593.147095 491.164276,593.105896 496.479034,593.370239   C501.449738,593.617432 503.297852,591.682373 503.231506,586.692322   C503.054443,573.372559 503.381012,560.046082 503.206757,546.726257   C503.150574,542.433838 504.405457,540.746460 508.886780,540.942322   C515.532776,541.232849 522.209412,541.090820 528.864075,540.867188   C557.792725,539.895142 576.744934,521.980530 578.338623,493.141510   C579.424927,473.484802 573.575256,456.554260 555.302612,446.123810   C545.430664,440.488739 534.496460,439.491180 522.437012,439.369781  M738.326782,642.269409   C737.623169,643.643799 736.033508,645.400330 736.422974,646.303345   C737.011719,647.668396 739.752197,649.592773 740.233704,649.270508   C742.956421,647.448242 745.375671,645.119751 747.652100,642.729187   C748.096252,642.262756 747.455078,640.762817 747.314514,639.739563   C744.482849,640.468201 741.651245,641.196899 738.326782,642.269409  M618.109009,648.224548   C619.004395,648.364929 619.899780,648.505249 620.795105,648.645630   C620.802368,648.227234 620.809631,647.808899 620.816895,647.390564   C619.921631,647.500671 619.026306,647.610840 618.109009,648.224548  z"
   id="path2"
   style="stroke:#1c6aad;stroke-opacity:1" />
<path
   fill="#1E6BAE"
   opacity="1.000000"
   stroke="none"
   d=" M336.837311,639.069519   C336.687225,648.147522 336.379242,657.226379 336.427704,666.303284   C336.486206,677.259277 338.184631,687.836304 346.757904,695.730469   C348.655060,697.477356 351.726135,697.949280 354.840759,699.399902   C362.648102,700.188843 369.871368,700.586182 377.094666,700.983521   C377.094666,700.983521 377.020111,700.978394 376.939301,701.278687   C377.273956,702.060791 377.689392,702.542542 378.104858,703.024353   C378.104858,703.024353 378.002502,703.006775 377.929688,703.425415   C377.876648,713.055359 377.896362,722.266663 377.916107,731.478027   C377.916107,731.478027 377.992249,731.509827 377.649414,731.669678   C377.209137,732.254272 377.111664,732.679077 377.014191,733.103821   C377.014191,733.103821 377.021545,733.028564 376.787292,732.940308   C376.365112,732.888489 376.177185,732.924988 375.705505,732.990295   C375.247681,733.095642 375.073608,733.172058 374.438049,733.221008   C366.318207,733.124390 358.659882,733.055298 350.753418,732.817749   C349.377411,732.710022 348.249451,732.770813 347.121521,732.831543   C338.559021,732.872681 331.641693,728.708496 325.250183,723.746033   C309.386414,711.429199 301.704224,695.056396 301.998718,674.048096   C302.062225,649.762024 302.081940,626.400513 302.025269,603.039307   C302.021179,601.345520 301.462128,599.653015 301.161102,597.959961   C301.451508,587.640320 299.956329,577.568237 294.970490,568.495056   C292.119659,563.307129 287.931274,558.854248 283.720154,553.985962   C283.013916,553.793091 282.854919,553.674927 282.867004,553.578125   C282.894989,553.354492 283.005920,553.141174 283.083191,552.923706   C283.083191,552.923706 283.127411,553.046997 283.000214,552.733521   C277.947540,550.290405 273.114685,547.896790 268.064026,546.123718   C264.701691,544.943420 261.028412,544.648682 257.494324,543.957581   C257.307373,543.191895 257.120422,542.426208 256.983826,540.875671   C256.999664,532.042175 256.965118,523.993469 256.930603,515.944824   C256.540588,512.278992 259.223694,511.052368 261.849609,511.067627   C284.766479,511.200867 301.069183,487.148071 301.034973,467.153748   C301.032532,465.723480 301.596588,464.292267 301.969604,461.980896   C302.061737,452.972839 302.120300,444.845245 302.093597,436.717926   C302.032562,418.147156 301.929779,399.576569 301.843994,381.005890   C302.964691,353.172791 321.052124,328.756744 351.817749,325.091156   C360.828827,325.146423 368.962036,325.068329 377.095245,324.990234   C377.095245,324.990234 377.007843,324.987885 377.035522,325.339172   C377.688477,328.222931 378.843414,330.756165 378.839813,333.287750   C378.829041,340.894165 378.366455,348.499908 378.080139,356.105927   C378.080139,356.105927 378.053894,356.040405 377.772583,356.029053   C377.331299,356.377380 377.171326,356.737122 377.011414,357.096863   C377.011414,357.096863 377.018524,357.025024 376.588318,356.934113   C374.366943,356.850342 372.568726,356.757843 370.785980,356.883698   C365.837311,357.233124 360.895020,357.673431 355.950226,358.077820   C355.950226,358.077820 355.885376,357.980682 355.971313,358.173828   C355.840118,358.587067 355.581207,358.732483 355.280518,358.803253   C342.505798,362.263428 337.756134,372.973358 337.112549,385.158722   C336.624451,394.400177 337.067108,403.690796 336.625763,413.647949   C336.116669,432.252228 336.077393,450.168060 336.038116,468.083923   C334.792633,495.563385 322.539429,515.903320 296.709778,528.346680   C322.144043,540.210327 334.074097,560.914185 335.964050,588.942627   C335.902313,604.570129 335.880493,619.287537 335.958099,634.004395   C335.967010,635.694214 336.530792,637.381226 336.837311,639.069519  z"
   id="path3" />
<path
   fill="#206DAE"
   opacity="1"
   stroke="none"
   d="m 548.03363,664.10986 c 3.56317,-3.81915 6.81818,-7.99701 10.75617,-11.37982 7.30432,-6.27441 15.83428,-8.48779 25.59265,-7.40051 7.08917,0.78992 14.33746,0.0884 21.51019,0.25201 1.22656,0.028 2.43011,1.06256 4.37695,1.97577 -1.48272,1.01483 -2.16986,1.88391 -2.72784,1.80768 -9.19599,-1.25696 -18.22663,2.79987 -27.49646,0.81799 -1.25452,-0.26818 -2.9953,1.73835 -4.51093,2.69159 1.44184,0.70587 2.89728,2.04297 4.32325,2.01221 7.59258,-0.16351 15.17456,-0.82367 22.76715,-0.98236 3.0866,-0.0644 6.18908,1.02649 9.28698,1.04108 21.12952,0.0995 42.25971,0.0394 63.38965,0.074 1.97711,0.003 3.95374,0.30621 6.29553,0.6532 -18.21923,0.56903 -36.80279,1.21826 -55.38775,1.26251 -16.75543,0.0399 -33.51331,-0.54144 -50.26795,-0.94086 -4.37957,-0.10437 -7.9447,1.1316 -10.9953,4.45258 -3.93084,4.27917 -8.20587,8.24219 -12.73797,12.36237 -0.40528,0.0211 -0.60449,-0.20594 -0.44709,-0.49573 1.32404,-2.15387 2.49067,-4.01795 4.04212,-6.49689 -2.86579,-0.62958 -5.09034,-1.11829 -7.26927,-1.59698 -0.16687,-0.0367 -0.33348,-0.0733 -0.50008,-0.10987 m 23.23614,-9.95367 c -0.16204,-0.11676 -0.32409,-0.23358 -0.48614,-0.35034 0.10236,0.1709 0.20465,0.34185 0.48614,0.35034 m 0.88898,-4.42902 c -0.11786,0.16345 -0.23571,0.32697 -0.35357,0.49042 0.17248,-0.10321 0.34503,-0.20642 0.35357,-0.49042 z"
   id="path4"
   style="fill:#1c6aad;fill-opacity:1;stroke:#1c6aad;stroke-opacity:1"
   sodipodi:nodetypes="csssccsccssscssscccsccccccc" />
<path
   fill="#206DAE"
   opacity="1.000000"
   stroke="none"
   d=" M501.984436,702.930298   C502.196381,703.774963 502.408356,704.619629 502.906250,705.994873   C502.831604,708.421448 502.471008,710.317444 502.038605,712.591125   C502.111176,712.638428 502.911102,713.160095 503.861206,713.779663   C501.769440,714.672974 500.123779,715.375793 497.515045,716.489929   C504.148102,717.742798 508.110382,715.711670 510.928894,710.661377   C511.472412,709.209900 511.665375,707.841614 512.452576,707.145935   C516.180176,703.851990 520.096497,700.772766 523.890381,697.552002   C525.625488,696.079102 527.233337,694.456116 529.161072,692.709351   C530.885376,691.620728 532.347595,690.723877 533.869873,689.881287   C533.929993,689.935608 534.050354,690.044128 534.050354,690.044128   C524.028381,699.880737 514.433350,710.218201 503.772797,719.305725   C499.551605,722.904053 493.270020,718.999451 491.018494,712.092407   C491.183807,706.169617 491.269531,701.090088 491.510895,696.206726   C492.070312,696.928833 492.474060,697.454895 493.003113,698.279663   C496.429749,701.305420 494.352509,697.332520 495.438477,697.044617   C497.807861,699.069824 499.896149,701.000061 501.984436,702.930298  z"
   id="path5" />
<path
   fill="#B2C4D0"
   opacity="1.000000"
   stroke="none"
   d=" M721.839478,375.622498   C675.757751,376.000519 629.438110,375.981689 583.118469,376.029083   C544.630249,376.068481 506.142181,376.185760 467.177490,376.149597   C467.687561,375.681641 468.674042,375.027527 469.660858,375.027008   C552.817566,374.981476 635.974365,374.985809 719.131104,374.999084   C719.954590,374.999207 720.778137,375.165558 721.839478,375.622498  z"
   id="path6" />
<path
   fill="#9AB4CB"
   opacity="1.000000"
   stroke="none"
   d=" M422.588287,422.976715   C423.008636,476.436096 423.011780,530.084656 423.023010,583.733215   C423.024994,593.229858 423.060608,602.726562 422.967468,612.688599   C422.567413,611.956909 422.030548,610.760010 422.029663,609.562683   C421.983521,548.087219 421.982391,486.611755 421.985779,425.136292   C421.985809,424.479492 422.108459,423.822693 422.588287,422.976715  z"
   id="path7" />
<path
   fill="#FFFFFF"
   opacity="1.000000"
   stroke="none"
   d=" M301.471741,381.223877   C301.929779,399.576569 302.032562,418.147156 302.093597,436.717926   C302.120300,444.845245 302.061737,452.972839 301.968384,461.566284   C301.596680,461.189941 301.038605,460.347778 301.038177,459.505341   C301.025024,433.484192 301.066467,407.463013 301.471741,381.223877  z"
   id="path8" />
<path
   fill="#FFFFFF"
   opacity="1.000000"
   stroke="none"
   d=" M301.086365,598.428650   C301.462128,599.653015 302.021179,601.345520 302.025269,603.039307   C302.081940,626.400513 302.062225,649.762024 301.996643,673.591980   C301.621307,672.559814 301.043396,671.059753 301.040009,669.558350   C300.986908,646.004761 301.007782,622.451050 301.086365,598.428650  z"
   id="path9" />
<path
   fill="#FFFFFF"
   opacity="1.000000"
   stroke="none"
   d=" M768.909058,595.569092   C768.543945,594.503479 768.012268,592.970520 768.008179,591.436157   C767.958496,572.560059 767.986023,553.683777 768.260376,534.415771   C768.527222,534.024109 768.879333,534.168945 768.879333,534.168945   C768.915466,554.479675 768.951599,574.790466 768.909058,595.569092  z"
   id="path10" />
<path
   fill="#9AB4CB"
   opacity="1.000000"
   stroke="none"
   d=" M491.355225,696.010620   C491.269531,701.090088 491.183807,706.169617 491.044800,711.727112   C490.663452,710.726135 490.058319,709.248779 490.049744,707.767944   C489.952545,690.982788 489.946625,674.197083 489.610687,657.108032   C489.802429,658.119202 490.627777,659.408264 490.732910,660.753601   C491.001221,664.186096 490.948212,667.643677 491.020996,672.007141   C491.100525,676.309082 491.182770,679.695129 491.241943,683.387329   C491.306030,684.090576 491.393219,684.487671 491.398834,685.333862   C491.371552,688.211426 491.425873,690.639893 491.423309,693.282471   C491.366394,693.496582 491.484558,693.923706 491.424561,694.268677   C491.361420,695.079285 491.358337,695.544922 491.355225,696.010620  z"
   id="path11" />
<path
   fill="#FFFFFF"
   opacity="1.000000"
   stroke="none"
   d=" M336.428772,467.877777   C336.077393,450.168060 336.116669,432.252228 336.529846,414.099304   C336.875610,431.798706 336.847534,449.735168 336.428772,467.877777  z"
   id="path12" />
<path
   fill="#B2C4D0"
   opacity="1.000000"
   stroke="none"
   d=" M257.738464,544.303711   C261.028412,544.648682 264.701691,544.943420 268.064026,546.123718   C273.114685,547.896790 277.947540,550.290405 282.939056,552.756958   C275.598724,550.168396 268.406067,546.500488 260.061798,546.930542   C259.409668,546.964111 258.677582,545.446533 257.738464,544.303711  z"
   id="path13" />
<path
   fill="#FFFFFF"
   opacity="1.000000"
   stroke="none"
   d=" M336.912750,638.598633   C336.530792,637.381226 335.967010,635.694214 335.958099,634.004395   C335.880493,619.287537 335.902313,604.570129 335.969604,589.384216   C336.363098,590.411438 336.951691,591.906250 336.958221,593.403503   C337.023224,608.311340 336.992126,623.219543 336.912750,638.598633  z"
   id="path14" />
<path
   fill="#D6D7D8"
   opacity="1.000000"
   stroke="none"
   d=" M351.001526,732.986206   C358.659882,733.055298 366.318207,733.124390 374.459167,733.489868   C375.002960,734.140869 375.064117,734.495361 375.125275,734.849915   C366.822388,734.836975 358.519531,734.824036 350.217682,734.265259   C350.479645,733.475037 350.740601,733.230591 351.001526,732.986206  z"
   id="path15" />
<path
   fill="#206DAE"
   opacity="1.000000"
   stroke="none"
   d=" M551.899353,672.946594   C547.592773,677.391724 543.189575,681.720703 538.360229,686.001221   C537.934082,685.952820 537.790283,685.829712 537.739136,685.583984   C537.211121,684.699524 536.734253,684.060791 536.206909,683.354370   C541.338623,679.770996 546.471008,676.187195 551.603394,672.603394   C551.603455,672.603394 551.802673,672.830444 551.899353,672.946594  z"
   id="path16" />
<path
   fill="#B2C4D0"
   opacity="1.000000"
   stroke="none"
   d=" M378.252380,731.191895   C377.896362,722.266663 377.876648,713.055359 377.938293,703.374207   C381.599731,712.169312 380.356262,721.532227 378.252380,731.191895  z"
   id="path17" />
<path
   fill="#9AB4CB"
   opacity="1.000000"
   stroke="none"
   d=" M768.116699,503.006653   C768.155090,488.836792 768.193420,474.666962 768.518066,460.170227   C768.853821,473.938232 768.903320,488.033081 768.721191,502.580414   C768.489502,503.032898 768.116699,503.006653 768.116699,503.006653  z"
   id="path18" />
<path
   fill="#B2C4D0"
   opacity="1.000000"
   stroke="none"
   d=" M376.932861,700.600525   C369.871368,700.586182 362.648102,700.188843 355.221252,699.473755   C361.107452,699.090637 367.197906,698.958313 373.286438,699.018372   C374.451813,699.029785 375.609711,699.798279 376.932861,700.600525  z"
   id="path19" />
<path
   fill="#9AB4CB"
   opacity="1.000000"
   stroke="none"
   d=" M378.469360,355.955139   C378.366455,348.499908 378.829041,340.894165 378.839813,333.287750   C378.843414,330.756165 377.688477,328.222931 377.036804,325.295471   C378.001984,326.089783 379.863129,327.291046 379.846954,328.466492   C379.721680,337.581940 379.234039,346.692383 378.469360,355.955139  z"
   id="path20" />
<path
   fill="#B2C4D0"
   opacity="1.000000"
   stroke="none"
   d=" M683.259766,656.686890   C692.996399,656.220520 703.030701,656.043518 713.945190,655.867310   C716.221130,655.818115 717.616760,655.768127 719.012390,655.718140   C720.096863,655.806946 721.181396,655.895752 722.659180,656.091370   C721.676941,656.475647 720.302246,656.988525 718.925598,656.993896   C707.136414,657.040100 695.346802,656.994446 683.259766,656.686890  z"
   id="path21" />
<path
   fill="#9AB4CB"
   opacity="1.000000"
   stroke="none"
   d=" M356.367920,358.168060   C360.895020,357.673431 365.837311,357.233124 370.785980,356.883698   C372.568726,356.757843 374.366943,356.850342 376.624176,356.937988   C370.479889,360.056030 363.645721,359.371918 356.367920,358.168060  z"
   id="path22" />
<path
   fill="#B2C4D0"
   opacity="1.000000"
   stroke="none"
   d=" M768.050354,503.471497   C768.116699,503.006653 768.489502,503.032898 768.675659,503.051575   C768.918335,513.116943 768.974854,523.163696 768.955322,533.689697   C768.879333,534.168945 768.527222,534.024109 768.353394,533.946045   C768.114319,523.890747 768.049133,513.913574 768.050354,503.471497  z"
   id="path23" />
<path
   fill="#D6D7D8"
   opacity="1.000000"
   stroke="none"
   d=" M256.555664,516.167969   C256.965118,523.993469 256.999664,532.042175 256.980774,540.558228   C256.621765,536.905762 256.175903,532.790100 256.050140,528.664734   C255.925629,524.578674 256.123962,520.482666 256.555664,516.167969  z"
   id="path24" />
<path
   fill="#B2C4D0"
   opacity="1.000000"
   stroke="none"
   d=" M376.878540,324.605103   C368.962036,325.068329 360.828827,325.146423 352.218933,325.122986   C353.561981,324.684753 355.379333,324.076080 357.201843,324.060364   C363.687531,324.004456 370.175018,324.150421 376.878540,324.605103  z"
   id="path25" />
<path
   fill="#206DAE"
   opacity="1.000000"
   stroke="none"
   d=" M538.005859,686.014526   C536.934692,687.323425 535.791809,688.570618 534.349609,689.930969   C534.050354,690.044128 533.929993,689.935608 533.940430,689.539185   C535.230652,688.038452 536.510437,686.934082 537.790283,685.829712   C537.790283,685.829712 537.934082,685.952820 538.005859,686.014526  z"
   id="path26" />
<path
   fill="#9AB4CB"
   opacity="1.000000"
   stroke="none"
   d=" M350.753418,732.817688   C350.740601,733.230591 350.479645,733.475037 349.996826,733.871826   C349.076111,733.706909 348.377319,733.389648 347.400024,732.951965   C348.249451,732.770813 349.377411,732.710022 350.753418,732.817688  z"
   id="path27" />
<path
   fill="#9AB4CB"
   opacity="1.000000"
   stroke="none"
   d=" M375.355438,734.884033   C375.064117,734.495361 375.002960,734.140869 374.920654,733.517456   C375.073608,733.172058 375.247681,733.095642 375.715698,733.286255   C376.019135,733.750305 376.028595,733.947205 376.038086,734.144104   C376.042847,734.493286 375.891998,734.751282 375.355438,734.884033  z"
   id="path28" />
<path
   fill="#B2C4D0"
   opacity="1.000000"
   stroke="none"
   d=" M378.040222,702.710327   C377.689392,702.542542 377.273956,702.060791 376.942169,701.241455   C377.342438,701.401306 377.659027,701.898804 378.040222,702.710327  z"
   id="path29" />
<path
   fill="#B2C4D0"
   opacity="1.000000"
   stroke="none"
   d=" M376.291779,734.042969   C376.028595,733.947205 376.019135,733.750305 375.999451,733.257385   C376.177185,732.924988 376.365112,732.888489 376.824890,732.944336   C376.912964,733.338379 376.729218,733.640076 376.291779,734.042969  z"
   id="path30" />
<path
   fill="#B2C4D0"
   opacity="1.000000"
   stroke="none"
   d=" M283.092621,553.115112   C283.005920,553.141174 282.894989,553.354492 282.867004,553.578125   C282.854919,553.674927 283.013916,553.793091 283.400818,553.818726   C283.401978,553.736938 283.200500,553.593811 283.092621,553.115112  z"
   id="path31" />
<path
   fill="#B2C4D0"
   opacity="1.000000"
   stroke="none"
   d=" M377.338196,732.971191   C377.111664,732.679077 377.209137,732.254272 377.608398,731.661133   C377.827545,731.941345 377.744873,732.389954 377.338196,732.971191  z"
   id="path32" />
<path
   fill="#206DAE"
   opacity="1.000000"
   stroke="none"
   d=" M723.284729,656.036560   C723.229370,655.834534 723.459534,655.736450 723.858215,655.818237   C723.979248,655.870544 723.522705,656.013000 723.284729,656.036560  z"
   id="path33" />
<path
   fill="#9AB4CB"
   opacity="1.000000"
   stroke="none"
   d=" M355.477570,358.735260   C355.581207,358.732483 355.840118,358.587067 356.019226,358.140442   C355.991608,358.210846 355.889404,358.461975 355.477570,358.735260  z"
   id="path34" />
<path
   fill="#9AB4CB"
   opacity="1.000000"
   stroke="none"
   d=" M377.278320,357.026733   C377.171326,356.737122 377.331299,356.377380 377.807190,356.035767   C377.930542,356.354767 377.737885,356.655670 377.278320,357.026733  z"
   id="path35" />
<path
   fill="#D6D7D8"
   opacity="1.000000"
   stroke="none"
   d=" M650.377075,436.284332   C665.225769,435.311676 679.078613,436.878479 691.817200,444.422791   C706.517822,453.129089 715.601379,466.218842 720.401245,482.152649   C728.340759,508.509399 728.465942,534.974792 716.611938,560.194580   C705.166138,584.545654 684.955566,596.461487 658.044128,596.040405   C631.421692,595.623779 611.334778,583.618896 600.740845,559.017456   C587.742554,528.832520 588.533020,498.049622 602.961914,468.561798   C612.251038,449.577881 628.562317,438.773468 650.377075,436.284332  M689.682495,481.969177   C682.641174,467.838623 671.131165,461.438202 655.523499,462.772095   C640.406921,464.064117 630.681580,472.719055 625.907410,486.675842   C619.515991,505.360291 620.131836,524.406494 625.005127,543.298401   C627.453979,552.791443 633.022949,560.506470 641.479797,565.718628   C660.595154,577.499817 685.031982,567.795410 692.253967,544.807800   C698.778442,524.040161 698.161865,503.101898 689.682495,481.969177  z"
   id="path36" />
<path
   fill="#D6D7D8"
   opacity="1.000000"
   stroke="none"
   d=" M522.925537,439.374451   C534.496460,439.491180 545.430664,440.488739 555.302612,446.123810   C573.575256,456.554260 579.424927,473.484802 578.338623,493.141510   C576.744934,521.980530 557.792725,539.895142 528.864075,540.867188   C522.209412,541.090820 515.532776,541.232849 508.886780,540.942322   C504.405457,540.746460 503.150574,542.433838 503.206757,546.726257   C503.381012,560.046082 503.054443,573.372559 503.231506,586.692322   C503.297852,591.682373 501.449738,593.617432 496.479034,593.370239   C491.164276,593.105896 485.812225,593.147095 480.498108,593.443176   C475.611847,593.715393 474.134430,591.590820 474.150970,586.940918   C474.293701,546.805420 474.287598,506.669312 474.316315,466.533386   C474.321198,459.705353 474.243683,452.877197 474.272614,446.049377   C474.296692,440.369049 475.342072,439.280060 480.969421,439.276031   C494.791931,439.266144 508.614471,439.333496 522.925537,439.374451  M520.314941,465.058685   C515.988037,465.058289 511.660675,465.096710 507.334442,465.043030   C504.712128,465.010468 503.251587,466.036804 503.248749,468.823853   C503.234100,483.135620 503.101837,497.448669 503.307220,511.757019   C503.326233,513.080811 505.464905,515.532715 506.560730,515.499878   C515.666260,515.227844 524.812500,514.915039 533.833923,513.746094   C539.428772,513.021118 543.788635,509.448364 546.773865,504.407166   C556.329712,488.270111 547.565857,468.994324 529.192932,465.943634   C526.573059,465.508636 523.906189,465.357544 520.314941,465.058685  z"
   id="path37" />
<path
   fill="#026CB0"
   opacity="1"
   stroke="none"
   d="m 537.73914,685.58398 c -1.2287,1.3501 -2.50849,2.45447 -3.85883,3.90088 -1.53272,1.23902 -2.99493,2.13587 -4.79706,2.9032 -0.3399,-1.4527 -0.3399,-2.77576 -0.3399,-4.45691 -3.05878,-2.73529 -3.2923,0.39209 -4.3086,2.79749 -0.14465,-0.9057 -0.28924,-1.81134 -0.43383,-2.71704 0.88562,-1.37793 1.56608,-2.97862 2.70037,-4.08667 3.39535,-3.31679 7.47356,-6.49038 11.34064,-9.90045 3.37323,-2.97459 6.51727,-6.2035 9.87927,-9.61493 2.45447,0.21484 4.79651,0.72937 7.88178,1.40716 -1.55145,2.47894 -2.71808,4.34302 -4.04218,6.49689 -5.28979,3.87359 -10.42218,7.4574 -15.55389,11.04077 0.52734,0.70642 1.00421,1.34515 1.53223,2.22961 z"
   id="path38"
   style="fill:#1c6aad;fill-opacity:1;stroke:#1c6aad;stroke-opacity:1"
   sodipodi:nodetypes="ccccccssccccc" />
<path
   fill="#000000"
   opacity="1.000000"
   stroke="none"
   d=" M523.667725,688.110229   C524.145508,688.917297 524.290100,689.822937 524.434753,690.728638   C525.451050,688.323242 525.684570,685.195862 528.743347,687.931152   C528.743347,689.612305 528.743347,690.935364 528.821167,692.579834   C527.233337,694.456116 525.625488,696.079102 523.890381,697.552002   C520.096497,700.772766 516.180176,703.851990 512.452576,707.145935   C511.665375,707.841614 511.472412,709.209900 510.597198,710.648804   C506.340088,710.034119 507.819000,706.475281 506.851379,704.093628   C512.345764,698.798706 517.840149,693.503784 523.667725,688.110229  z"
   id="path39"
   style="fill:#1c6aad;fill-opacity:1;stroke:#1c6aad;stroke-opacity:1" />
<path
   fill="#026CB0"
   opacity="1.000000"
   stroke="none"
   d=" M439.028137,640.812378   C437.858398,636.879395 439.767456,635.778442 442.998077,637.163818   C446.397247,638.621399 450.421539,640.067566 452.516876,642.792175   C455.965240,647.276245 460.618561,645.648743 464.649658,646.951111   C467.566925,647.893677 470.336853,649.329712 473.104584,650.684448   C474.935516,651.580627 476.646210,652.722534 478.339691,654.775085   C472.417786,654.269043 466.495911,653.762939 460.309570,652.713257   C457.903320,646.634949 452.436157,649.922546 448.939117,647.983398   C448.939117,647.983398 448.978058,648.021545 449.248596,647.699768   C447.593353,644.336487 445.451355,641.454102 441.955200,640.142395   C441.173309,639.849121 440.013794,640.562439 439.028137,640.812378  z"
   id="path40"
   style="stroke:#1c6aad;stroke-opacity:1" />
<path
   fill="#026CB0"
   opacity="1.000000"
   stroke="none"
   d=" M738.573181,642.097473   C741.651245,641.196899 744.482849,640.468201 747.314514,639.739563   C747.455078,640.762817 748.096252,642.262756 747.652100,642.729187   C745.375671,645.119751 742.956421,647.448242 740.233704,649.270508   C739.752197,649.592773 737.011719,647.668396 736.422974,646.303345   C736.033508,645.400330 737.623169,643.643799 738.573181,642.097473  z"
   id="path41" />
<path
   fill="#026cb0"
   opacity="1"
   stroke="none"
   d="m 501.99097,702.47082 c -2.09482,-1.47076 -4.18311,-3.401 -6.6341,-5.86346 -0.31021,-3.20551 -0.25766,-5.87872 -0.20514,-8.552 0.57328,-1.27515 1.14658,-2.55029 2.29233,-5.09857 0.81738,4.28802 1.38565,7.2691 1.95392,10.25024 0.13501,0.003 0.27005,0.006 0.40509,0.009 0.14496,-1.88172 0.28992,-3.76343 0.43488,-5.64508 l 1.75955,-0.0743 c 0,4.8382 0,9.6764 -0.007,14.97412 z"
   id="path42"
   sodipodi:nodetypes="ccccccccc"
   style="stroke:#1c6aad;stroke-opacity:1" />
<path
   fill="#026CB0"
   opacity="1.000000"
   stroke="none"
   d=" M506.583862,704.246582   C507.819000,706.475281 506.340088,710.034119 510.520447,711.041931   C508.110382,715.711670 504.148102,717.742798 497.515045,716.489929   C500.123779,715.375793 501.769440,714.672974 503.861206,713.779663   C502.911102,713.160095 502.111176,712.638428 502.038605,712.591125   C502.471008,710.317444 502.831604,708.421448 503.097321,706.263306   C504.107056,705.467224 505.211670,704.933411 506.583862,704.246582  z"
   id="path43"
   style="stroke:#1c6aad;stroke-opacity:1" />
<path
   fill="#026CB0"
   opacity="1.000000"
   stroke="none"
   d=" M491.265045,683.081177   C491.182770,679.695129 491.100525,676.309082 491.091553,672.469482   C494.227478,670.792175 494.660248,673.073486 494.830688,675.055725   C495.057404,677.692322 494.860321,680.365479 494.504883,683.222412   C494.014771,680.983948 493.865082,678.545959 493.715424,676.108032   C493.436218,676.122742 493.157013,676.137451 492.877808,676.152161   C492.877808,683.428406 492.877808,690.704651 492.877808,697.980896   C492.474060,697.454895 492.070312,696.928833 491.510925,696.206726   C491.358337,695.544922 491.361420,695.079285 491.482788,694.168884   C491.667328,693.486206 491.627045,693.267578 491.480225,693.068298   C491.425873,690.639893 491.371552,688.211426 491.486755,685.155640   C491.525879,684.045959 491.395447,683.563538 491.265045,683.081177  z"
   id="path44" />
<path
   fill="#000000"
   opacity="1.000000"
   stroke="none"
   d=" M493.003113,698.279663   C492.877808,690.704651 492.877808,683.428406 492.877808,676.152161   C493.157013,676.137451 493.436218,676.122742 493.715424,676.108032   C493.865082,678.545959 494.014771,680.983948 494.455048,683.669250   C494.845917,685.020874 494.946198,686.125183 495.099121,687.642395   C495.099213,690.728638 495.046661,693.401855 495.075745,696.512390   C494.352509,697.332520 496.429749,701.305420 493.003113,698.279663  z"
   id="path45"
   style="fill:#1c6aad;fill-opacity:1;stroke:#1c6aad;stroke-opacity:1" />
<path
   fill="#000000"
   opacity="1.000000"
   stroke="none"
   d=" M439.332642,641.007019   C440.013794,640.562439 441.173309,639.849121 441.955200,640.142395   C445.451355,641.454102 447.593353,644.336487 449.271912,647.713928   C445.895508,645.767151 442.766327,643.484436 439.332642,641.007019  z"
   id="path46"
   style="fill:#1c6aad;fill-opacity:1" />
<path
   fill="#000000"
   opacity="1.000000"
   stroke="none"
   d=" M449.104248,648.303467   C452.436157,649.922546 457.903320,646.634949 460.012390,652.567383   C456.409607,651.517883 452.839478,650.070740 449.104248,648.303467  z"
   id="path47"
   style="fill:#1c6aad;fill-opacity:1" />
<path
   fill="#206DAE"
   opacity="1.000000"
   stroke="none"
   d=" M718.962952,655.405945   C717.616760,655.768127 716.221130,655.818115 714.410156,655.808289   C715.414490,653.878479 716.768005,651.510803 718.962952,655.405945  z"
   id="path48" />
<path
   fill="#206DAE"
   opacity="1.000000"
   stroke="none"
   d=" M618.119995,647.972778   C619.026306,647.610840 619.921631,647.500671 620.816895,647.390564   C620.809631,647.808899 620.802368,648.227234 620.795105,648.645630   C619.899780,648.505249 619.004395,648.364929 618.119995,647.972778  z"
   id="path49" />
<path
   fill="#1C6AAD"
   opacity="1.000000"
   stroke="none"
   d=" M571.180176,654.237427   C570.988281,654.147705 570.885986,653.976746 570.783630,653.805847   C570.945679,653.922607 571.107727,654.039429 571.180176,654.237427  z"
   id="path50" />
<path
   fill="#1C6AAD"
   opacity="1.000000"
   stroke="none"
   d=" M572.240723,649.817566   C572.150208,650.011169 571.977661,650.114380 571.805176,650.217590   C571.923035,650.054138 572.040894,649.890625 572.240723,649.817566  z"
   id="path51" />
<path
   fill="#206DAE"
   opacity="1.000000"
   stroke="none"
   d=" M491.241943,683.387329   C491.395447,683.563538 491.525879,684.045959 491.568359,684.706543   C491.393219,684.487671 491.306030,684.090576 491.241943,683.387329  z"
   id="path52" />
<path
   fill="#206DAE"
   opacity="1.000000"
   stroke="none"
   d=" M491.423309,693.282471   C491.627045,693.267578 491.667328,693.486206 491.542786,693.823975   C491.484558,693.923706 491.366394,693.496582 491.423309,693.282471  z"
   id="path53" />
<path
   fill="#1D6BAD"
   opacity="1.000000"
   stroke="none"
   d=" M689.844482,482.309937   C698.161865,503.101898 698.778442,524.040161 692.253967,544.807800   C685.031982,567.795410 660.595154,577.499817 641.479797,565.718628   C633.022949,560.506470 627.453979,552.791443 625.005127,543.298401   C620.131836,524.406494 619.515991,505.360291 625.907410,486.675842   C630.681580,472.719055 640.406921,464.064117 655.523499,462.772095   C671.131165,461.438202 682.641174,467.838623 689.844482,482.309937  z"
   id="path54" />
<path
   fill="#206DAE"
   opacity="1.000000"
   stroke="none"
   d=" M520.787964,465.066895   C523.906189,465.357544 526.573059,465.508636 529.192932,465.943634   C547.565857,468.994324 556.329712,488.270111 546.773865,504.407166   C543.788635,509.448364 539.428772,513.021118 533.833923,513.746094   C524.812500,514.915039 515.666260,515.227844 506.560730,515.499878   C505.464905,515.532715 503.326233,513.080811 503.307220,511.757019   C503.101837,497.448669 503.234100,483.135620 503.248749,468.823853   C503.251587,466.036804 504.712128,465.010468 507.334442,465.043030   C511.660675,465.096710 515.988037,465.058289 520.787964,465.066895  z"
   id="path55" />
</svg>
